<svg xmlns="http://www.w3.org/2000/svg" xmlns:xlink="http://www.w3.org/1999/xlink" viewBox="0,0,256,256" width="50px" height="50px" fill-rule="nonzero"><g transform=""><g fill="#000000" fill-rule="nonzero" stroke="none" stroke-width="1" stroke-linecap="butt" stroke-linejoin="miter" stroke-miterlimit="10" stroke-dasharray="" stroke-dashoffset="0" font-family="none" font-weight="none" font-size="none" text-anchor="none" style="mix-blend-mode: normal"><g transform="translate(0,0) scale(5.12,5.12) skewX(0)"><path d="M9,4c-2.74952,0 -5,2.25048 -5,5v32c0,2.74952 2.25048,5 5,5h32c2.74952,0 5,-2.25048 5,-5v-32c0,-2.74952 -2.25048,-5 -5,-5zM9,6h32c1.66848,0 3,1.33152 3,3v32c0,0.19648 -0.02134,0.38676 -0.05664,0.57227c-4.94882,-4.52553 -12.062,-7.25412 -17.92187,-7.54297c0.09899,-2.88451 0.64518,-5.91506 1.7168,-8.69336c2.51413,1.12621 4.8623,0.60565 6.46289,-0.24805c1.67361,-0.89265 2.67302,-2.112 2.70117,-2.14648l0.00195,-0.00391c4.1794,-4.80793 4.09375,-11.84961 4.09375,-11.84961c0.00092,-0.51141 -0.38413,-0.94111 -0.89258,-0.99609c-5.21124,-0.55552 -11.60523,1.25676 -14.76172,5.33203c-1.23931,1.60014 -1.48876,3.32843 -1.26758,4.73242c0.08629,0.54581 0.59872,0.91833 1.14453,0.83203c0.54581,-0.08629 0.91833,-0.59872 0.83203,-1.14453c-0.15282,-0.97001 -0.0396,-2.01946 0.87109,-3.19531c2.31413,-2.98772 7.56336,-4.69846 11.94531,-4.55078c-0.0724,1.37232 -0.43031,6.02936 -3.47656,9.53125c-0.00663,0.00771 -0.01314,0.01553 -0.01953,0.02344c0,0 -0.79861,0.96872 -2.11328,1.66992c-1.24586,0.6645 -2.81146,1.06643 -4.72852,0.18359c1.36534,-2.74693 3.32352,-5.11453 5.96875,-6.64062c0.40855,-0.22806 0.60437,-0.70891 0.47138,-1.15751c-0.13299,-0.4486 -0.55923,-0.74503 -1.02607,-0.71359c-0.15745,0.01108 -0.31005,0.05927 -0.44531,0.14063c-5.0193,2.89575 -7.73283,8.19121 -8.85937,13.63477c-1.13609,-2.00231 -3.08797,-4.48515 -6.28516,-5.70312c-0.12407,-0.04997 -0.25689,-0.07454 -0.39062,-0.07227c-0.48092,0.0107 -0.8861,0.36227 -0.96448,0.83689c-0.07839,0.47461 0.19222,0.93779 0.64417,1.10257c1.45379,0.55382 2.61943,1.46774 3.53711,2.4668c-0.06525,0.06999 -0.28748,0.29182 -0.84766,0.48242c-0.65466,0.22275 -1.64773,0.33526 -3.19922,-0.45508c-1.42364,-0.72561 -2.51792,-2.35282 -3.20117,-3.85352c-0.47932,-1.05279 -0.54724,-1.48118 -0.66992,-1.95117c0.87672,-0.33809 2.63534,-0.9071 5.02734,-0.39453c2.09717,0.44907 2.92198,1.3549 3.35352,2.21875c0.24702,0.49458 0.8482,0.69526 1.34277,0.44824c0.49458,-0.24702 0.69526,-0.8482 0.44824,-1.34277c-0.68046,-1.36215 -2.15373,-2.73032 -4.72656,-3.28125c-0.97039,-0.20794 -1.90297,-0.25984 -2.75586,-0.2207c-2.55868,0.11742 -4.40039,1.05469 -4.40039,1.05469c-0.40712,0.20352 -0.62546,0.65627 -0.53125,1.10156c0,0 0.31255,1.48376 1.0918,3.19531c0.77925,1.71155 2.02692,3.74325 4.11328,4.80664c0,0.00065 0,0.0013 0,0.00195c1.95851,0.99767 3.62411,0.95016 4.75195,0.56641c0.68713,-0.2338 1.12017,-0.54811 1.41406,-0.79883c1.14885,1.73467 1.64648,3.30078 1.64648,3.30078c0.01795,0.06002 0.04149,0.11821 0.07031,0.17383c-0.04374,0.53519 -0.07177,1.06586 -0.08789,1.5918c-8.45031,0.40446 -15.75629,5.80736 -17.95117,7.5957c-0.04432,-0.20668 -0.07031,-0.41984 -0.07031,-0.64062v-32c0,-1.66848 1.33152,-3 3,-3zM25.13477,36.00391c5.49954,0.04389 12.99311,2.82126 17.75,7.32031c-0.51488,0.41695 -1.16384,0.67578 -1.88477,0.67578h-32c-0.70576,0 -1.34166,-0.24918 -1.85156,-0.65039c1.9243,-1.55247 9.58306,-7.2886 17.73437,-7.34375c0.08373,0.00997 0.16839,0.00932 0.25195,-0.00195z"></path></g></g><g fill="#000000" fill-rule="nonzero" stroke="none" stroke-width="1" stroke-linecap="butt" stroke-linejoin="miter" stroke-miterlimit="10" stroke-dasharray="" stroke-dashoffset="0" font-family="none" font-weight="none" font-size="none" text-anchor="none" style="mix-blend-mode: normal"><g id="text"><path d="M92.16,209.46l-1.18,2.51c-0.32667,-0.18667 -0.66333,-0.31333 -1.01,-0.38c-0.35333,-0.06667 -0.73333,-0.1 -1.14,-0.1v0c-0.46,0 -0.90667,0.14667 -1.34,0.44c-0.44,0.3 -0.83333,0.69333 -1.18,1.18c-0.35333,0.48667 -0.63,1.05333 -0.83,1.7c-0.20667,0.65333 -0.31,1.32 -0.31,2v0c0,0.87333 0.18667,1.53667 0.56,1.99c0.38,0.44667 0.87667,0.67 1.49,0.67v0c0.51333,0 0.98667,-0.08 1.42,-0.24c0.43333,-0.16 0.82,-0.34333 1.16,-0.55v0l0.59,2.15c-0.54667,0.40667 -1.18333,0.74333 -1.91,1.01c-0.72,0.26667 -1.44,0.4 -2.16,0.4v0c-0.82,0 -1.51333,-0.12 -2.08,-0.36c-0.57333,-0.24 -1.04,-0.56333 -1.4,-0.97c-0.36,-0.41333 -0.62333,-0.88333 -0.79,-1.41c-0.17333,-0.52667 -0.26,-1.08 -0.26,-1.66v0c0,-1.44 0.20333,-2.72 0.61,-3.84c0.41333,-1.12667 0.95667,-2.08 1.63,-2.86c0.67333,-0.77333 1.44,-1.37 2.3,-1.79c0.86667,-0.42 1.75,-0.63 2.65,-0.63v0c0.80667,0 1.44333,0.07667 1.91,0.23c0.47333,0.15333 0.89667,0.32333 1.27,0.51zM91.65,217.73v0c0,-1.34667 0.19,-2.57333 0.57,-3.68c0.38667,-1.11333 0.9,-2.06333 1.54,-2.85c0.64,-0.78 1.38333,-1.39 2.23,-1.83c0.84,-0.43333 1.72333,-0.65 2.65,-0.65v0c0.81333,0 1.50333,0.13 2.07,0.39c0.56,0.25333 1.01667,0.59333 1.37,1.02c0.34667,0.42667 0.59667,0.91333 0.75,1.46c0.15333,0.54667 0.23,1.11 0.23,1.69v0c0,1.33333 -0.18667,2.55 -0.56,3.65c-0.37333,1.1 -0.87667,2.04333 -1.51,2.83c-0.63333,0.78 -1.36667,1.39 -2.2,1.83c-0.84,0.43333 -1.72,0.65 -2.64,0.65v0c-0.8,0 -1.48333,-0.13333 -2.05,-0.4c-0.56,-0.26667 -1.02333,-0.61333 -1.39,-1.04c-0.36667,-0.42667 -0.63667,-0.90667 -0.81,-1.44c-0.16667,-0.54 -0.25,-1.08333 -0.25,-1.63zM94.9,217.3v0c0,1.53333 0.55333,2.3 1.66,2.3v0c0.41333,0 0.81333,-0.18 1.2,-0.54c0.39333,-0.35333 0.74333,-0.82 1.05,-1.4c0.31333,-0.58 0.55667,-1.24 0.73,-1.98c0.18,-0.73333 0.27,-1.46667 0.27,-2.2v0c0,-0.68 -0.11333,-1.20333 -0.34,-1.57c-0.23333,-0.36667 -0.66667,-0.55 -1.3,-0.55v0c-0.40667,0 -0.80667,0.17 -1.2,0.51c-0.39333,0.34 -0.74333,0.78667 -1.05,1.34c-0.30667,0.56 -0.55333,1.19667 -0.74,1.91c-0.18667,0.72 -0.28,1.44667 -0.28,2.18zM117.63,203.96l-2.84,13.41c-0.15333,0.72 -0.26333,1.38667 -0.33,2c-0.07333,0.61333 -0.11,1.19333 -0.11,1.74v0c0,0.14 0,0.27333 0,0.4c0,0.12667 0.01,0.26 0.03,0.4v0h-2.15l-0.36,-2.21h-0.1c-0.18667,0.30667 -0.43,0.61 -0.73,0.91c-0.3,0.3 -0.63,0.57333 -0.99,0.82c-0.35333,0.24667 -0.73333,0.44333 -1.14,0.59c-0.4,0.14667 -0.79667,0.22 -1.19,0.22v0c-1.05333,0 -1.86667,-0.37667 -2.44,-1.13c-0.57333,-0.74667 -0.86,-1.78 -0.86,-3.1v0c0,-1.19333 0.16333,-2.34333 0.49,-3.45c0.32,-1.11333 0.77667,-2.1 1.37,-2.96c0.58667,-0.86 1.30333,-1.54667 2.15,-2.06c0.84,-0.51333 1.77333,-0.77 2.8,-0.77v0c0.49333,0 0.90333,0.03 1.23,0.09c0.32667,0.06 0.63333,0.16 0.92,0.3v0l1.1,-5.2zM111.59,217.58l1.23,-5.79c-0.20667,-0.13333 -0.44333,-0.23 -0.71,-0.29c-0.26,-0.06 -0.61333,-0.09 -1.06,-0.09v0c-0.51333,0 -0.97667,0.17333 -1.39,0.52c-0.42,0.35333 -0.77667,0.82333 -1.07,1.41c-0.28667,0.59333 -0.51,1.27333 -0.67,2.04c-0.16667,0.76667 -0.25,1.56667 -0.25,2.4v0c0,0.5 0.11,0.92667 0.33,1.28c0.22667,0.36 0.54333,0.54 0.95,0.54v0c0.26,0 0.52,-0.06333 0.78,-0.19c0.26667,-0.12667 0.51667,-0.29333 0.75,-0.5c0.22667,-0.20667 0.44,-0.43 0.64,-0.67c0.19333,-0.23333 0.35,-0.45333 0.47,-0.66zM126.08,218.6l0.66,2.05c-0.52667,0.44667 -1.20667,0.82333 -2.04,1.13c-0.84,0.30667 -1.81333,0.46 -2.92,0.46v0c-1.38667,0 -2.47667,-0.40667 -3.27,-1.22c-0.79333,-0.80667 -1.19,-1.93667 -1.19,-3.39v0c0,-1.36667 0.21333,-2.6 0.64,-3.7c0.42667,-1.1 0.98667,-2.03333 1.68,-2.8c0.69333,-0.76667 1.47333,-1.36 2.34,-1.78c0.87333,-0.42 1.74333,-0.63 2.61,-0.63v0c0.7,0 1.30333,0.09 1.81,0.27c0.5,0.18 0.91333,0.42667 1.24,0.74c0.32667,0.32 0.56667,0.68333 0.72,1.09c0.15333,0.41333 0.23,0.85 0.23,1.31v0c0,0.7 -0.18,1.31333 -0.54,1.84c-0.36,0.52667 -0.86,0.96667 -1.5,1.32c-0.64,0.34667 -1.41,0.61 -2.31,0.79c-0.90667,0.18 -1.89667,0.27 -2.97,0.27v0c-0.14,0 -0.27,-0.00333 -0.39,-0.01c-0.12,-0.01333 -0.24667,-0.02 -0.38,-0.02v0c-0.03333,0.20667 -0.06,0.39333 -0.08,0.56c-0.01333,0.16 -0.02,0.30667 -0.02,0.44v0c0,0.77333 0.2,1.34667 0.6,1.72c0.4,0.37333 0.96667,0.56 1.7,0.56v0c0.75333,0 1.42667,-0.11 2.02,-0.33c0.6,-0.22 1.05333,-0.44333 1.36,-0.67zM120.96,214.33v0c0.48,0 0.98667,-0.01667 1.52,-0.05c0.54,-0.03333 1.04,-0.11667 1.5,-0.25c0.46,-0.12667 0.84333,-0.31333 1.15,-0.56c0.30667,-0.24667 0.46,-0.58333 0.46,-1.01v0c0,-0.25333 -0.09333,-0.51333 -0.28,-0.78c-0.18667,-0.26667 -0.58,-0.4 -1.18,-0.4v0c-0.74667,0 -1.4,0.29 -1.96,0.87c-0.55333,0.58 -0.95667,1.30667 -1.21,2.18zM143.51,214.66l0.46,-2.12h5.38l-1.69,7.98c-0.76667,0.6 -1.57333,1.03667 -2.42,1.31c-0.84667,0.27333 -1.75667,0.41 -2.73,0.41v0c-0.93333,0 -1.79667,-0.16333 -2.59,-0.49c-0.8,-0.32 -1.49,-0.79 -2.07,-1.41c-0.58,-0.61333 -1.03,-1.37 -1.35,-2.27c-0.32667,-0.90667 -0.49,-1.94 -0.49,-3.1v0c0,-1.96667 0.27,-3.66667 0.81,-5.1c0.53333,-1.43333 1.26333,-2.61333 2.19,-3.54c0.92,-0.93333 1.99333,-1.62 3.22,-2.06c1.23333,-0.44667 2.53,-0.67 3.89,-0.67v0c0.97333,0 1.84,0.08 2.6,0.24c0.76,0.16667 1.33667,0.33333 1.73,0.5v0l-1.33,2.95c-0.36,-0.17333 -0.81,-0.31 -1.35,-0.41c-0.53333,-0.10667 -1.18333,-0.16 -1.95,-0.16v0c-0.90667,0 -1.74333,0.17333 -2.51,0.52c-0.76667,0.34 -1.43333,0.84333 -2,1.51c-0.56,0.66667 -1,1.49 -1.32,2.47c-0.31333,0.98 -0.47,2.1 -0.47,3.36v0c0,1.42 0.33333,2.53 1,3.33c0.66667,0.80667 1.56,1.21 2.68,1.21v0c0.84,0 1.57667,-0.21333 2.21,-0.64v0l0.71,-3.41zM152.04,210.21v0c0,-1.02667 0.17,-1.95 0.51,-2.77c0.34,-0.82 0.81333,-1.51 1.42,-2.07c0.60667,-0.56667 1.31333,-1.00333 2.12,-1.31c0.81333,-0.30667 1.69667,-0.46 2.65,-0.46v0c0.72,0 1.38667,0.11 2,0.33c0.61333,0.22667 1.14667,0.57333 1.6,1.04c0.45333,0.47333 0.81333,1.06333 1.08,1.77c0.26,0.70667 0.39,1.54667 0.39,2.52v0c0,1.36667 -0.17333,2.62667 -0.52,3.78c-0.35333,1.14667 -0.82333,2.19 -1.41,3.13c-0.58667,0.94 -1.27,1.77667 -2.05,2.51c-0.77333,0.73333 -1.58667,1.35667 -2.44,1.87c-0.85333,0.51333 -1.72,0.91 -2.6,1.19c-0.88,0.28 -1.71333,0.44667 -2.5,0.5v0l-0.15,-2.61c0.94,-0.17333 1.82333,-0.44333 2.65,-0.81c0.82667,-0.36667 1.57333,-0.8 2.24,-1.3c0.66667,-0.50667 1.24333,-1.07 1.73,-1.69c0.48667,-0.62667 0.86667,-1.27333 1.14,-1.94v0c-0.5,0.39333 -1.04,0.69 -1.62,0.89c-0.58,0.19333 -1.28,0.29 -2.1,0.29v0c-0.47333,0 -0.96,-0.09 -1.46,-0.27c-0.49333,-0.18 -0.93667,-0.46 -1.33,-0.84c-0.39333,-0.38667 -0.71667,-0.89 -0.97,-1.51c-0.25333,-0.62667 -0.38,-1.37333 -0.38,-2.24zM155.16,209.72v0c0,0.49333 0.06333,0.90333 0.19,1.23c0.12667,0.32667 0.30333,0.59 0.53,0.79c0.22,0.20667 0.46333,0.35333 0.73,0.44c0.26,0.08667 0.53667,0.13 0.83,0.13v0c0.64667,0 1.25333,-0.10333 1.82,-0.31c0.56,-0.20667 1.00333,-0.48 1.33,-0.82v0c0.04667,-0.18667 0.09333,-0.45 0.14,-0.79c0.04,-0.34667 0.06,-0.59667 0.06,-0.75v0c0,-0.97333 -0.19,-1.76 -0.57,-2.36c-0.38667,-0.60667 -1.01667,-0.91 -1.89,-0.91v0c-0.40667,0 -0.79667,0.06333 -1.17,0.19c-0.38,0.12667 -0.71667,0.32667 -1.01,0.6c-0.3,0.27333 -0.54,0.62333 -0.72,1.05c-0.18,0.42667 -0.27,0.93 -0.27,1.51z"></path></g></g></g></svg>