<svg xmlns="http://www.w3.org/2000/svg" viewBox="0 0 64 64"><path fill="#efefef" d="M48.62 44.91c2.57-3.43 4.05-7.6 4.25-11.91h5.02c.55 0 .99-.44.99-.99s-.44-.99-.99-.99h-5.02c-.2-4.31-1.67-8.48-4.25-11.91l10.99-12.4a.994.994 0 0 0-.08-1.4.994.994 0 0 0-1.4.08L46.59 18.4c-.32.36-.33.91-.03 1.28 2.81 3.45 4.36 7.83 4.36 12.31 0 4.49-1.55 8.87-4.36 12.32-.31.38-.3.92.03 1.28l11.54 13.02a.996.996 0 0 0 1.4.08c.41-.36.45-.99.08-1.4L48.62 44.91zM17.41 18.4 5.87 5.38a.985.985 0 0 0-1.4-.08c-.41.36-.45.99-.08 1.4l10.99 12.4c-2.57 3.43-4.05 7.6-4.25 11.91H6.11c-.55 0-.99.44-.99.99s.44.99.99.99h5.02c.2 4.31 1.67 8.48 4.24 11.91L4.39 57.31a.994.994 0 0 0 .08 1.4c.19.17.42.25.66.25.27 0 .55-.11.74-.33L17.41 45.6c.32-.36.33-.91.03-1.28-2.81-3.45-4.36-7.83-4.36-12.32s1.55-8.86 4.36-12.31c.3-.38.29-.93-.03-1.29z"/><path fill="#e82327" d="M60.79 7.06c1.77 0 3.21-1.44 3.21-3.21S62.56.64 60.79.64s-3.21 1.44-3.21 3.21 1.45 3.21 3.21 3.21z"/><path fill="#ffd926" d="M60.79 28.8c-1.77 0-3.21 1.44-3.21 3.21s1.44 3.21 3.21 3.21S64 33.78 64 32.01c0-1.78-1.44-3.21-3.21-3.21z"/><path fill="#4272b7" d="M60.79 56.94c-1.77 0-3.21 1.44-3.21 3.21s1.44 3.21 3.21 3.21S64 61.92 64 60.15s-1.44-3.21-3.21-3.21z"/><circle cx="3.21" cy="3.86" r="3.21" fill="#e82327"/><circle cx="3.21" cy="32" r="3.21" fill="#ffd926"/><circle cx="3.21" cy="60.15" r="3.21" fill="#4272b7"/><path fill="#57bb6e" d="m36.08 18.81-.34 5.2h-7.48l-.34-5.2zM40.72 48.24c.38-2.39-.45-4.61-2.31-7.88-2.22-3.91-2.82-9.17-2.75-14.39h-7.32c.07 5.21-.53 10.48-2.75 14.39-1.86 3.27-2.69 5.49-2.31 7.88"/><path fill="#4aad60" d="M43.73 51.12v1.82H20.27v-1.82c0-.34.34-.62.76-.62.6 0 1.09-.43 1.09-.96v-.92c0-.34.33-.62.75-.62h18.25c.42 0 .75.27.75.62v.92c0 .54.49.96 1.09.96.42.01.77.28.77.62zM38 24.94c0 .7-.56 1.27-1.25 1.27h-9.49c-.7 0-1.25-.57-1.25-1.27 0-.71.56-1.27 1.25-1.27h9.49c.69 0 1.25.57 1.25 1.27zM36.54 19.37h-9.08c-3.13-3.65-2.63-8.31-2.63-8.31h2.42l1.15 2.53h2.18v-2.53h2.84v2.53h2.18l1.15-2.53h2.42s.5 4.66-2.63 8.31z"/></svg>